<?xml version="1.0" encoding="utf-8"?>
<!-- Generator: Adobe Illustrator 25.4.1, SVG Export Plug-In . SVG Version: 6.00 Build 0)  -->
<svg version="1.0" id="katman_1" xmlns="http://www.w3.org/2000/svg" xmlns:xlink="http://www.w3.org/1999/xlink" x="0px" y="0px"
	 viewBox="0 0 625.8 471.6" style="enable-background:new 0 0 625.8 471.6;" xml:space="preserve">
<style type="text/css">
	.st0{fill:#010202;}
</style>
<g>
	<path class="st0" d="M185.1,212.1h-58.5v17.4h41.5c-2,24.3-22.3,34.7-41.4,34.7c-24.5,0-45.8-19.2-45.8-46.2
		c0-26.3,20.3-46.5,45.8-46.5c19.7,0,31.3,12.5,31.3,12.5l12.2-12.6c0,0-15.6-17.4-44-17.4c-36.2,0-64.2,30.6-64.2,63.6
		c0,32.4,26.4,63.9,65.2,63.9c34.1,0,59.1-23.4,59.1-58C186.2,216.3,185.1,212.1,185.1,212.1L185.1,212.1z M233.1,199.5
		c-24,0-41.2,18.8-41.2,40.6c0,22.2,16.7,41.3,41.5,41.3c22.4,0,40.8-17.2,40.8-40.8C274.2,213.5,252.8,199.5,233.1,199.5
		L233.1,199.5z M233.3,215.6c11.8,0,23,9.5,23,24.9c0,15-11.1,24.9-23,24.9c-13.1,0-23.4-10.5-23.4-25
		C209.8,226.2,220,215.6,233.3,215.6L233.3,215.6z M322.7,199.5c-24,0-41.2,18.8-41.2,40.6c0,22.2,16.7,41.3,41.5,41.3
		c22.4,0,40.8-17.2,40.8-40.8C363.8,213.5,342.4,199.5,322.7,199.5L322.7,199.5z M322.9,215.6c11.8,0,23,9.5,23,24.9
		c0,15-11.1,24.9-23,24.9c-13.1,0-23.4-10.5-23.4-25C299.4,226.2,309.6,215.6,322.9,215.6L322.9,215.6z M410.5,199.6
		c-22,0-39.3,19.3-39.3,40.9c0,24.7,20.1,41,39,41c11.7,0,17.9-4.6,22.5-10v8.1c0,14.1-8.6,22.6-21.5,22.6c-12.5,0-18.8-9.3-21-14.6
		l-15.7,6.6c5.6,11.8,16.8,24.1,36.9,24.1c21.9,0,38.6-13.8,38.6-42.7V202h-17.2v6.9C427.3,203.3,420.1,199.6,410.5,199.6z
		 M412.1,215.6c10.8,0,21.9,9.2,21.9,25c0,16-11.1,24.8-22.1,24.8c-11.7,0-22.7-9.5-22.7-24.7C389.2,225,400.6,215.6,412.1,215.6
		L412.1,215.6z M526.2,199.5c-20.8,0-38.2,16.5-38.2,40.9c0,25.8,19.4,41.1,40.2,41.1c17.3,0,28-9.5,34.3-18l-14.2-9.4
		c-3.7,5.7-9.8,11.3-20.1,11.3c-11.5,0-16.8-6.3-20.1-12.4l54.9-22.8l-2.9-6.7C555,210.4,542.6,199.5,526.2,199.5L526.2,199.5z
		 M526.9,215.2c7.5,0,12.9,4,15.2,8.8l-36.7,15.3C503.8,227.5,515,215.2,526.9,215.2z"/>
	<polygon class="st0" points="461.8,279.1 479.8,279.1 479.8,158.3 461.8,158.3 	"/>
</g>
</svg>
